<?xml version="1.0" encoding="iso-8859-1"?>
<!-- Generator: Adobe Illustrator 19.0.0, SVG Export Plug-In . SVG Version: 6.00 Build 0)  -->
<svg version="1.1" id="Layer_1" xmlns="http://www.w3.org/2000/svg" xmlns:xlink="http://www.w3.org/1999/xlink" x="0px" y="0px"
	 viewBox="0 0 512 512" style="enable-background:new 0 0 512 512;" xml:space="preserve">
<path style="fill:#0071BC;" d="M504.082,27.001v209.916l-100.187-71.562l-35.591,27.957l-31.201,24.522l-0.286,0.381l-56.964-35.59
	l-4.771-2.958L241.4,197.225L55.625,294.167V55.625V27.001h224.229H504.082z M213.063,127.188c0-31.582-25.667-57.25-57.25-57.25
	c-31.582,0-57.25,25.667-57.25,57.25s25.667,57.25,57.25,57.25S213.063,158.771,213.063,127.188z"/>
<path style="fill:#FFD311;" d="M98.563,127.188c0-31.582,25.667-57.25,57.25-57.25c31.582,0,57.25,25.667,57.25,57.25
	s-25.667,57.25-57.25,57.25C124.23,184.438,98.563,158.771,98.563,127.188z"/>
<path style="fill:#FABB1B;" d="M146.272,127.188c0-23.062,13.714-42.918,33.396-51.981c-7.271-3.349-15.334-5.268-23.854-5.268
	c-31.582,0-57.25,25.667-57.25,57.25s25.667,57.25,57.25,57.25c8.52,0,16.582-1.919,23.854-5.268
	C159.986,170.106,146.272,150.25,146.272,127.188z"/>
<polygon style="fill:#AFB6BB;" points="55.625,437.291 55.625,360.958 504.082,360.958 504.082,437.291 451.604,437.291 "/>
<polygon style="fill:#00A651;" points="504.082,278.519 414.01,222.032 368.305,193.311 403.895,165.355 504.082,236.917 "/>
<polygon style="fill:#595E62;" points="451.604,437.291 451.604,484.999 7.918,484.999 7.918,55.625 55.625,55.625 55.625,294.167 
	55.625,360.958 55.625,437.291 "/>
<polygon style="fill:#009547;" points="414.01,222.032 504.082,278.519 504.082,322.791 336.818,218.215 337.104,217.833 
	368.305,193.311 "/>
<polygon style="fill:#36C63F;" points="310.101,239.97 504.082,360.577 504.082,360.958 55.625,360.958 55.625,294.167 
	241.401,197.223 "/>
<polygon style="fill:#00AC4E;" points="504.082,360.577 310.101,239.97 241.401,197.223 275.083,179.667 279.854,182.625 
	336.818,218.215 504.082,322.791 "/>
<path style="fill:#0B5E9A;" d="M55.625,27.001v28.624v238.541l185.776-96.943l33.682-17.556l4.771,2.958V27.001H55.625z
	 M155.813,184.438c-31.582,0-57.25-25.667-57.25-57.25s25.667-57.25,57.25-57.25c31.582,0,57.25,25.667,57.25,57.25
	S187.395,184.438,155.813,184.438z"/>
<g>
	<rect x="84.253" y="391.21" style="fill:#FFFFFF;" width="233.768" height="15.835"/>
	<rect x="332.336" y="391.21" style="fill:#FFFFFF;" width="23.854" height="15.835"/>
	<rect x="370.498" y="391.21" style="fill:#FFFFFF;" width="23.854" height="15.835"/>
	<rect x="408.671" y="391.21" style="fill:#FFFFFF;" width="23.855" height="15.835"/>
	<polygon style="fill:#FFFFFF;" points="418.87,315.247 305.992,246.739 285.281,234.139 293.51,220.611 314.216,233.206 
		427.087,301.711 	"/>
	<polygon style="fill:#FFFFFF;" points="466.617,262.791 409.939,228.823 395.038,219.844 403.211,206.281 418.096,215.25 
		474.757,249.209 	"/>
	<rect x="260.772" y="71.562" style="fill:#FFFFFF;" width="124.041" height="15.835"/>
	<rect x="403.899" y="71.562" style="fill:#FFFFFF;" width="23.854" height="15.835"/>
	<rect x="308.477" y="109.726" style="fill:#FFFFFF;" width="23.854" height="15.835"/>
	<rect x="270.315" y="109.726" style="fill:#FFFFFF;" width="23.854" height="15.835"/>
	<rect x="346.65" y="109.726" style="fill:#FFFFFF;" width="119.27" height="15.835"/>
</g>
<path d="M47.708,19.083v28.624H0v445.209h459.521v-47.708H512V19.083H47.708z M496.165,308.504l-145.704-91.096l53.661-42.162
	l92.043,65.746V308.504z M496.165,34.918v186.613l-92.495-66.068l-67.484,53.022l-52.16-32.59l-8.604-5.335l-37.684,19.643
	L63.543,281.105V34.918H496.165z M443.685,477.082H15.835V63.543h31.873v381.666h395.978L443.685,477.082L443.685,477.082z
	 M496.165,429.374H63.543v-60.498h432.622V429.374z M63.543,353.04v-54.075l181.517-94.721l29.683-15.472l57.876,36.156
	l163.545,102.25v25.862L63.543,353.04L63.543,353.04z"/>
<path d="M155.814,192.356c35.933,0,65.167-29.234,65.167-65.168s-29.234-65.168-65.167-65.168
	c-35.934,0-65.168,29.234-65.168,65.168S119.88,192.356,155.814,192.356z M155.814,77.856c27.203,0,49.331,22.13,49.331,49.333
	s-22.13,49.333-49.331,49.333s-49.333-22.13-49.333-49.333S128.611,77.856,155.814,77.856z"/>
<g>
</g>
<g>
</g>
<g>
</g>
<g>
</g>
<g>
</g>
<g>
</g>
<g>
</g>
<g>
</g>
<g>
</g>
<g>
</g>
<g>
</g>
<g>
</g>
<g>
</g>
<g>
</g>
<g>
</g>
</svg>
